# xmcd
#
# Track frame offsets:
#	150
#	19220
#	35145
#	48752
#	63545
#	75595
#	92507
#	106854
#	121990
#	137435
#	155485
#	172365
#	187147
#	207322
#	220502
#	236725
#
# Disc length: 3396 seconds
#
# Revision: 2
# Processed by: cddbd v1.5.2PL0 Copyright (c) Steve Scherf et al.
# Submitted via: audiograbber 1.83.01
#
DISCID=de0d4210
DTITLE=MH1074 Monster Hits - Female Country Hits (MH)
DYEAR=2008
DGENRE=Karaoke
TTITLE0=Trisha Yearwood - You're Where I Belong (MH)
TTITLE1=Reba McEntire - What Do You Say (MH)
TTITLE2=Shania Twain - Come On Over (MH)
TTITLE3=Faith Hill - This Kiss (MH)
TTITLE4=Alecia Elliot - I'm Diggin' It (MH)
TTITLE5=Dixie Chicks - Wide open Spaces (MH)
TTITLE6=Chely Wright - Single white Female (MH)
TTITLE7=Lee Ann womack - I'll Think Of A reason later (MH)
TTITLE8=Terri Clark - You're Easy On The Eyes (MH)
TTITLE9=Sherrie' Austin - Never Been Kissed (MH)
TTITLE10=Jo Dee Messina - Stand Beside Me (MH)
TTITLE11=The Wilkinsons - Boy Oh Boy (MH)
TTITLE12=Reba McEntire - I'll Be (MH)
TTITLE13=Reba McEntire - Wrong Night (MH)
TTITLE14=Sara Evans - No Place That Far (MH)
TTITLE15=Coley McCabe - Grow Young With You (MH)
EXTD=
EXTT0=
EXTT1=
EXTT2=
EXTT3=
EXTT4=
EXTT5=
EXTT6=
EXTT7=
EXTT8=
EXTT9=
EXTT10=
EXTT11=
EXTT12=
EXTT13=
EXTT14=
EXTT15=
PLAYORDER=
